<svg version="1.1" id="Layer_1" xmlns="http://www.w3.org/2000/svg" xmlns:xlink="http://www.w3.org/1999/xlink" x="0px" y="0px"
	 width="100%" viewBox="0 0 310 65" enable-background="new 0 0 310 65" xml:space="preserve">
<path fill="#033D7B" opacity="1.000000" stroke="none" 
	d="
M311.000000,50.000000 
	C311.000000,55.330040 311.000000,60.660080 311.000000,65.992584 
	C207.733749,65.995056 104.467484,65.995056 1.100614,65.995056 
	C1.100614,44.414200 1.100614,22.827776 1.100614,1.120675 
	C104.333229,1.120675 207.666595,1.120675 311.000000,1.120675 
	C311.000000,6.063860 311.000000,11.060732 310.791840,16.885445 
	C310.389130,25.087227 310.065979,32.461025 310.057404,39.835182 
	C310.053497,43.223087 310.666687,46.611706 311.000000,50.000000 
M92.422569,13.733820 
	C90.688927,13.905234 88.798866,13.738581 87.305611,14.429516 
	C86.775475,14.674809 86.881477,18.085087 87.261169,18.200882 
	C89.034584,18.741720 91.005074,18.636307 93.228104,19.564398 
	C93.485199,28.165613 93.630539,36.772758 94.086189,45.363441 
	C94.186920,47.262592 95.385468,49.103512 96.996544,50.976528 
	C100.772629,50.976528 104.548714,50.976528 108.921028,50.976528 
	C108.921028,46.153175 108.921028,41.813755 108.921028,37.474339 
	C112.629051,41.548313 114.533043,47.203445 118.441597,49.630714 
	C122.155342,51.937004 127.965530,50.867458 134.174164,51.394333 
	C129.802170,45.154537 126.426117,40.336166 123.067436,35.542583 
	C128.855347,31.231279 130.550842,27.387728 128.953369,22.742962 
	C127.410614,18.257370 123.958771,16.358828 117.261307,16.306368 
	C110.287209,16.251743 103.313141,16.193621 95.798637,15.735590 
	C94.858192,15.155563 93.917747,14.575537 92.422569,13.733820 
M257.030640,17.259062 
	C256.628967,17.049864 256.227295,16.840666 255.014282,16.366922 
	C254.052353,17.247965 253.090408,18.129009 251.966888,19.925890 
	C251.980545,24.285324 251.994186,28.644758 251.319092,32.956532 
	C246.996536,28.599072 242.394608,24.478317 238.438965,19.809948 
	C235.220749,16.011877 231.683121,15.695374 227.357330,16.793837 
	C227.357330,28.215044 227.357330,39.424690 227.357330,50.752052 
	C229.621994,50.752052 231.547668,50.752052 234.135727,50.752052 
	C234.135727,45.564980 234.135727,40.572453 234.135727,34.442566 
	C238.741699,39.636677 242.624954,43.716682 246.153381,48.083408 
	C249.336411,52.022701 252.967377,51.659016 257.163269,49.501724 
	C257.119965,49.330338 257.076691,49.158947 257.247955,48.073189 
	C257.177948,38.053028 257.107971,28.032867 257.030640,17.259062 
M272.853058,36.017384 
	C275.933502,39.515366 279.312744,42.798904 282.017090,46.566837 
	C285.232910,51.047459 289.244415,51.746162 294.353485,50.506245 
	C294.353485,39.215229 294.353485,27.985268 294.353485,16.274879 
	C292.500153,16.376499 290.973785,16.460190 288.934692,16.571995 
	C288.934692,22.278347 288.934692,27.465466 288.934692,32.136467 
	C284.410278,27.941755 279.632507,24.038177 275.515900,19.530746 
	C272.163208,15.859735 268.681274,15.592396 264.531433,16.896851 
	C264.531433,28.280724 264.531433,39.382957 264.531433,50.653008 
	C266.864258,50.653008 268.917847,50.653008 271.540680,50.653008 
	C271.540680,45.713646 271.540680,41.073349 271.889099,36.097412 
	C271.889099,36.097412 272.232605,35.756798 272.853058,36.017384 
M18.575607,50.978191 
	C22.352713,50.978191 26.129818,50.978191 30.467560,50.978191 
	C30.467560,46.070000 30.467560,41.665031 30.467560,37.326057 
	C33.263065,37.326057 35.476093,37.326057 38.081581,37.326057 
	C38.081581,41.968323 38.081581,46.231735 38.081581,50.728168 
	C42.390423,50.728168 46.288574,50.728168 50.462898,50.728168 
	C50.462898,39.302807 50.462898,28.102604 50.462898,16.647633 
	C46.242275,16.647633 42.341633,16.647633 37.892372,16.647633 
	C37.892372,21.315908 37.892372,25.711164 37.892372,30.028717 
	C30.377213,30.860605 30.340456,30.828741 30.339067,23.993176 
	C30.338572,21.558207 30.338987,19.123236 30.338987,16.023222 
	C25.537237,16.420567 21.457558,16.758158 16.832014,17.719807 
	C16.644445,28.142433 16.429916,38.564812 16.333910,48.988281 
	C16.327923,49.638145 17.251392,50.296570 18.575607,50.978191 
M179.043839,46.328407 
	C179.043839,36.428970 179.043839,26.529533 179.043839,16.980286 
	C171.988968,14.912458 167.441513,16.539408 164.759598,22.946115 
	C163.457153,26.057449 161.251755,28.790798 159.062088,32.330696 
	C156.849930,28.744184 155.051178,25.814320 153.239090,22.892719 
	C148.521744,15.286970 147.989975,15.068814 138.599609,16.976261 
	C138.599609,28.151922 138.599609,39.378841 138.599609,51.016483 
	C140.454056,50.889645 142.000519,50.783871 143.965652,50.649460 
	C143.965652,45.010059 143.965652,39.797527 143.965652,34.584995 
	C144.263901,34.499226 144.562164,34.413460 144.860413,34.327690 
	C148.033264,39.953636 151.206131,45.579582 154.674149,51.728893 
	C157.992859,46.564964 160.892899,42.052483 164.064590,37.117310 
	C168.645569,41.379734 165.009232,46.618557 167.300735,50.979729 
	C170.067139,50.979729 173.048157,50.820297 176.004150,51.024097 
	C179.024460,51.232330 179.210220,49.486736 179.043839,46.328407 
M61.351025,19.821304 
	C54.819077,26.835098 53.451710,34.681412 57.454235,42.182114 
	C61.054600,48.929169 68.562790,52.812481 75.782623,51.661736 
	C83.242813,50.472691 89.323097,44.793587 90.919258,37.523823 
	C92.516632,30.248554 89.392975,22.382282 83.264633,18.247238 
	C76.636757,13.775139 69.486137,14.134011 61.351025,19.821304 
M188.568069,38.986073 
	C187.045334,42.790787 185.522598,46.595501 183.903992,50.639729 
	C187.408554,51.001919 190.543961,52.014450 191.631805,47.722012 
	C191.768280,47.183540 192.451004,46.403538 192.906219,46.385620 
	C196.728104,46.235180 200.591309,45.929989 204.362198,46.364487 
	C205.621231,46.509556 206.591675,48.723904 207.808243,49.871239 
	C208.349670,50.381851 209.166870,50.875256 209.870865,50.892670 
	C213.808395,50.990051 217.749588,50.939518 222.333893,50.939518 
	C218.045593,39.596985 214.314499,28.755943 209.633148,18.342068 
	C208.888168,16.684828 203.879944,16.553017 200.827850,16.494831 
	C199.379913,16.467226 197.170456,17.946018 196.554489,19.307299 
	C193.744156,25.518198 191.376877,31.929577 188.568069,38.986073 
M59.582569,17.780792 
	C58.951019,16.168882 58.633205,14.256878 57.526299,13.099656 
	C57.110664,12.665134 54.396259,13.616430 53.602730,14.623616 
	C53.009399,15.376698 53.496014,18.224407 54.060730,18.406574 
	C55.589149,18.899614 57.415577,18.468826 59.582569,17.780792 
z"/>
<path fill="#124376" opacity="1.000000" stroke="none" 
	d="
M311.000000,49.531342 
	C310.666687,46.611706 310.053497,43.223087 310.057404,39.835182 
	C310.065979,32.461025 310.389130,25.087227 310.791840,17.356642 
	C311.000000,27.687561 311.000000,38.375122 311.000000,49.531342 
z"/>
<path fill="#EB8E06" opacity="1.000000" stroke="none" 
	d="
M179.043716,46.807480 
	C179.210220,49.486736 179.024460,51.232330 176.004150,51.024097 
	C173.048157,50.820297 170.067139,50.979729 167.300735,50.979729 
	C165.009232,46.618557 168.645569,41.379734 164.064590,37.117310 
	C160.892899,42.052483 157.992859,46.564964 154.674149,51.728893 
	C151.206131,45.579582 148.033264,39.953636 144.860413,34.327690 
	C144.562164,34.413460 144.263901,34.499226 143.965652,34.584995 
	C143.965652,39.797527 143.965652,45.010059 143.965652,50.649460 
	C142.000519,50.783871 140.454056,50.889645 138.599609,51.016483 
	C138.599609,39.378841 138.599609,28.151922 138.599609,16.976261 
	C147.989975,15.068814 148.521744,15.286970 153.239090,22.892719 
	C155.051178,25.814320 156.849930,28.744184 159.062088,32.330696 
	C161.251755,28.790798 163.457153,26.057449 164.759598,22.946115 
	C167.441513,16.539408 171.988968,14.912458 179.043839,16.980286 
	C179.043839,26.529533 179.043839,36.428970 179.043716,46.807480 
z"/>
<path fill="#ED8F05" opacity="1.000000" stroke="none" 
	d="
M17.377880,17.095751 
	C21.457558,16.758158 25.537237,16.420567 30.338987,16.023222 
	C30.338987,19.123236 30.338572,21.558207 30.339067,23.993176 
	C30.340456,30.828741 30.377213,30.860605 37.892372,30.028717 
	C37.892372,25.711164 37.892372,21.315908 37.892372,16.647633 
	C42.341633,16.647633 46.242275,16.647633 50.462898,16.647633 
	C50.462898,28.102604 50.462898,39.302807 50.462898,50.728168 
	C46.288574,50.728168 42.390423,50.728168 38.081581,50.728168 
	C38.081581,46.231735 38.081581,41.968323 38.081581,37.326057 
	C35.476093,37.326057 33.263065,37.326057 30.467560,37.326057 
	C30.467560,41.665031 30.467560,46.070000 30.467560,50.978191 
	C26.129818,50.978191 22.352713,50.978191 18.106518,50.494270 
	C17.550913,39.038818 17.464396,28.067286 17.377880,17.095751 
z"/>
<path fill="#EA8E06" opacity="1.000000" stroke="none" 
	d="
M96.339058,16.137028 
	C103.313141,16.193621 110.287209,16.251743 117.261307,16.306368 
	C123.958771,16.358828 127.410614,18.257370 128.953369,22.742962 
	C130.550842,27.387728 128.855347,31.231279 123.067436,35.542583 
	C126.426117,40.336166 129.802170,45.154537 134.174164,51.394333 
	C127.965530,50.867458 122.155342,51.937004 118.441597,49.630714 
	C114.533043,47.203445 112.629051,41.548313 108.921028,37.474339 
	C108.921028,41.813755 108.921028,46.153175 108.921028,50.976528 
	C104.548714,50.976528 100.772629,50.976528 96.452049,50.513885 
	C96.051384,38.746506 96.195221,27.441767 96.339058,16.137028 
M116.336136,26.540909 
	C116.242256,25.110020 116.148376,23.679131 116.047958,22.148552 
	C113.533012,22.148552 111.351501,22.148552 109.203751,22.148552 
	C109.203751,25.708735 109.203751,28.903540 109.203751,32.087780 
	C111.650032,32.087780 113.727509,32.087780 116.125916,32.087780 
	C116.203598,30.399469 116.269753,28.961771 116.336136,26.540909 
M97.503067,17.542212 
	C97.503067,17.542212 97.483864,17.500914 97.503067,17.542212 
z"/>
<path fill="#EC8F05" opacity="1.000000" stroke="none" 
	d="
M61.616978,19.570816 
	C69.486137,14.134011 76.636757,13.775139 83.264633,18.247238 
	C89.392975,22.382282 92.516632,30.248554 90.919258,37.523823 
	C89.323097,44.793587 83.242813,50.472691 75.782623,51.661736 
	C68.562790,52.812481 61.054600,48.929169 57.454235,42.182114 
	C53.451710,34.681412 54.819077,26.835098 61.616978,19.570816 
M74.319733,45.690163 
	C75.218964,44.998981 76.880714,44.328018 76.899658,43.613499 
	C77.092384,36.344700 77.017426,29.068800 77.017426,21.575584 
	C74.367401,21.575584 72.292618,21.575584 69.599632,21.575584 
	C69.599632,28.944130 69.465210,36.062199 69.768578,43.161560 
	C69.806801,44.055988 72.147903,44.852009 74.319733,45.690163 
z"/>
<path fill="#E98D07" opacity="1.000000" stroke="none" 
	d="
M271.540680,36.433048 
	C271.540680,41.073349 271.540680,45.713646 271.540680,50.653008 
	C268.917847,50.653008 266.864258,50.653008 264.531433,50.653008 
	C264.531433,39.382957 264.531433,28.280724 264.531433,16.896851 
	C268.681274,15.592396 272.163208,15.859735 275.515900,19.530746 
	C279.632507,24.038177 284.410278,27.941755 288.934692,32.136467 
	C288.934692,27.465466 288.934692,22.278347 288.934692,16.571995 
	C290.973785,16.460190 292.500153,16.376499 294.353485,16.274879 
	C294.353485,27.985268 294.353485,39.215229 294.353485,50.506245 
	C289.244415,51.746162 285.232910,51.047459 282.017090,46.566837 
	C279.312744,42.798904 275.933502,39.515366 272.426392,35.724258 
	C271.846710,35.765106 271.693695,36.099079 271.540680,36.433048 
z"/>
<path fill="#EC8F06" opacity="1.000000" stroke="none" 
	d="
M188.709198,38.627487 
	C191.376877,31.929577 193.744156,25.518198 196.554489,19.307299 
	C197.170456,17.946018 199.379913,16.467226 200.827850,16.494831 
	C203.879944,16.553017 208.888168,16.684828 209.633148,18.342068 
	C214.314499,28.755943 218.045593,39.596985 222.333893,50.939518 
	C217.749588,50.939518 213.808395,50.990051 209.870865,50.892670 
	C209.166870,50.875256 208.349670,50.381851 207.808243,49.871239 
	C206.591675,48.723904 205.621231,46.509556 204.362198,46.364487 
	C200.591309,45.929989 196.728104,46.235180 192.906219,46.385620 
	C192.451004,46.403538 191.768280,47.183540 191.631805,47.722012 
	C190.543961,52.014450 187.408554,51.001919 183.903992,50.639729 
	C185.522598,46.595501 187.045334,42.790787 188.709198,38.627487 
M202.973724,40.235634 
	C202.104340,36.362324 201.234955,32.489017 200.365570,28.615709 
	C199.912628,28.696741 199.459686,28.777771 199.006744,28.858801 
	C197.608261,32.468609 196.209793,36.078419 194.568970,40.313801 
	C197.558197,40.313801 199.834671,40.313801 202.973724,40.235634 
z"/>
<path fill="#ED8F05" opacity="1.000000" stroke="none" 
	d="
M256.979340,49.999126 
	C252.967377,51.659016 249.336411,52.022701 246.153381,48.083408 
	C242.624954,43.716682 238.741699,39.636677 234.135727,34.442566 
	C234.135727,40.572453 234.135727,45.564980 234.135727,50.752052 
	C231.547668,50.752052 229.621994,50.752052 227.357330,50.752052 
	C227.357330,39.424690 227.357330,28.215044 227.357330,16.793837 
	C231.683121,15.695374 235.220749,16.011877 238.438965,19.809948 
	C242.394608,24.478317 246.996536,28.599072 251.961807,32.998268 
	C254.816910,29.481064 254.569519,22.189987 252.128479,19.010052 
	C253.090408,18.129009 254.052353,17.247965 255.611115,16.739750 
	C256.484619,17.412624 256.761292,17.712667 257.037964,18.012711 
	C257.107971,28.032867 257.177948,38.053028 257.072144,48.649551 
	C256.791504,49.490105 256.819183,49.747841 256.979340,49.999126 
z"/>
<path fill="#043683" opacity="1.000000" stroke="none" 
	d="
M96.068848,15.936309 
	C96.195221,27.441767 96.051384,38.746506 95.993034,50.511242 
	C95.385468,49.103512 94.186920,47.262592 94.086189,45.363441 
	C93.630539,36.772758 93.485199,28.165613 93.127167,18.866964 
	C93.009926,16.778191 92.993614,15.386851 92.977303,13.995511 
	C93.917747,14.575537 94.858192,15.155563 96.068848,15.936309 
z"/>
<path fill="#E08B0E" opacity="1.000000" stroke="none" 
	d="
M92.699936,13.864666 
	C92.993614,15.386851 93.009926,16.778191 92.965683,18.465721 
	C91.005074,18.636307 89.034584,18.741720 87.261169,18.200882 
	C86.881477,18.085087 86.775475,14.674809 87.305611,14.429516 
	C88.798866,13.738581 90.688927,13.905234 92.699936,13.864666 
z"/>
<path fill="#E08B0E" opacity="1.000000" stroke="none" 
	d="
M59.353188,18.092625 
	C57.415577,18.468826 55.589149,18.899614 54.060730,18.406574 
	C53.496014,18.224407 53.009399,15.376698 53.602730,14.623616 
	C54.396259,13.616430 57.110664,12.665134 57.526299,13.099656 
	C58.633205,14.256878 58.951019,16.168882 59.353188,18.092625 
z"/>
<path fill="#003586" opacity="1.000000" stroke="none" 
	d="
M17.104946,17.407780 
	C17.464396,28.067286 17.550913,39.038818 17.689932,50.480682 
	C17.251392,50.296570 16.327923,49.638145 16.333910,48.988281 
	C16.429916,38.564812 16.644445,28.142433 17.104946,17.407780 
z"/>
<path fill="#FE9500" opacity="1.000000" stroke="none" 
	d="
M252.047684,19.467972 
	C254.569519,22.189987 254.816910,29.481064 252.306183,33.022095 
	C251.994186,28.644758 251.980545,24.285324 252.047684,19.467972 
z"/>
<path fill="#FE9500" opacity="1.000000" stroke="none" 
	d="
M257.071289,49.750427 
	C256.819183,49.747841 256.791504,49.490105 256.964874,49.106735 
	C257.076691,49.158947 257.119965,49.330338 257.071289,49.750427 
z"/>
<path fill="#FE9500" opacity="1.000000" stroke="none" 
	d="
M257.034302,17.635887 
	C256.761292,17.712667 256.484619,17.412624 256.016785,16.872025 
	C256.227295,16.840666 256.628967,17.049864 257.034302,17.635887 
z"/>
<path fill="#013A7F" opacity="1.000000" stroke="none" 
	d="
M116.336021,27.032490 
	C116.269753,28.961771 116.203598,30.399469 116.125916,32.087780 
	C113.727509,32.087780 111.650032,32.087780 109.203751,32.087780 
	C109.203751,28.903540 109.203751,25.708735 109.203751,22.148552 
	C111.351501,22.148552 113.533012,22.148552 116.047958,22.148552 
	C116.148376,23.679131 116.242256,25.110020 116.336021,27.032490 
z"/>
<path fill="#FE9600" opacity="1.000000" stroke="none" 
	d="
M97.493469,17.521563 
	C97.483864,17.500914 97.503067,17.542212 97.493469,17.521563 
z"/>
<path fill="#0C3E7A" opacity="1.000000" stroke="none" 
	d="
M73.870888,45.691895 
	C72.147903,44.852009 69.806801,44.055988 69.768578,43.161560 
	C69.465210,36.062199 69.599632,28.944130 69.599632,21.575584 
	C72.292618,21.575584 74.367401,21.575584 77.017426,21.575584 
	C77.017426,29.068800 77.092384,36.344700 76.899658,43.613499 
	C76.880714,44.328018 75.218964,44.998981 73.870888,45.691895 
z"/>
<path fill="#033D7B" opacity="1.000000" stroke="none" 
	d="
M271.714905,36.265228 
	C271.693695,36.099079 271.846710,35.765106 272.116150,35.593964 
	C272.232605,35.756798 271.889099,36.097412 271.714905,36.265228 
z"/>
<path fill="#103E79" opacity="1.000000" stroke="none" 
	d="
M202.542450,40.274719 
	C199.834671,40.313801 197.558197,40.313801 194.568970,40.313801 
	C196.209793,36.078419 197.608261,32.468609 199.006744,28.858801 
	C199.459686,28.777771 199.912628,28.696741 200.365570,28.615709 
	C201.234955,32.489017 202.104340,36.362324 202.542450,40.274719 
z"/>
</svg>